<svg width="291" height="291" viewBox="0 0 291 291" fill="none" xmlns="http://www.w3.org/2000/svg">
<path d="M290.398 145.199C290.398 225.391 225.391 290.398 145.199 290.398C65.0079 290.398 0 225.391 0 145.199C0 65.0079 65.0079 0 145.199 0C225.391 0 290.398 65.0079 290.398 145.199Z" fill="#C8D67A"/>
<path d="M108.14 229.285H108.54C108.54 229.285 109.21 227.055 109.99 224.745C113.45 214.535 118 205.065 123.52 196.585C133.36 181.455 145.83 168.845 160.58 159.095C171.37 151.965 183.22 146.575 195.79 143.075C206.54 140.085 216.56 138.585 226.43 138.475H226.97C227.63 138.465 228.34 138.445 229.1 138.445V123.495C199.31 123.605 171.99 132.395 148 149.595C120.65 169.205 102.11 195.965 92.8896 229.145L92.8496 229.285H108.13H108.14Z" fill="#053732"/>
<path d="M162.929 173.315C143.669 187.375 129.889 206.335 122.119 229.275H138.089C138.139 229.155 143.479 217.955 146.189 213.335C152.549 202.485 161.289 193.065 172.909 184.535C179.369 179.795 186.139 176.105 193.059 173.565C196.319 172.255 199.799 171.335 203.159 170.455C204.239 170.165 205.319 169.885 206.399 169.585C213.489 167.615 220.919 166.585 229.119 166.425L229.089 164.645V152.815L229.109 151.475C204.929 151.555 182.659 158.905 162.919 173.315H162.929Z" fill="#053732"/>
<path d="M123.439 138.424H61.4792V122.804L64.0092 122.784C78.2492 122.764 92.9692 122.744 107.449 122.814C107.849 122.814 108.709 122.784 108.709 122.784C113.259 128.284 118.169 133.504 123.449 138.424H123.439Z" fill="#053732"/>
<path d="M152.469 124.974C150.429 123.284 148.479 121.664 146.539 120.034C138.029 112.884 130.549 104.404 123.659 94.114C117.329 84.654 108.169 61.364 108.079 61.124L106.489 61.154H92.4295L92.5195 61.474C101.379 92.074 117.659 116.484 142.279 136.094L142.569 136.324L142.939 136.094C147.199 133.134 151.539 130.394 155.979 127.884L152.469 124.974Z" fill="#053732"/>
<path d="M187.689 113.944C164.519 102.444 147.699 84.6643 137.699 61.1143L135.919 61.1543H121.869L121.989 61.5043C122.279 62.3143 122.539 63.0743 122.789 63.7943C123.279 65.2243 123.739 66.5643 124.289 67.8443C133.619 89.7043 148.269 107.224 167.829 119.924C168.369 120.274 169.089 120.704 169.579 120.994C175.579 118.304 181.719 116.004 187.979 114.074L187.699 113.934L187.689 113.944Z" fill="#053732"/>
<path d="M123.239 151.944H61.279V167.564L63.809 167.584C78.049 167.604 92.769 167.624 107.249 167.554C107.649 167.554 108.509 167.584 108.509 167.584C113.059 162.084 117.969 156.864 123.249 151.944H123.239Z" fill="#053732"/>
</svg>
