<svg width="291" height="291" viewBox="0 0 291 291" fill="none" xmlns="http://www.w3.org/2000/svg">
<path d="M145.199 290.398C65.0079 290.398 0 225.391 0 145.199C0 65.0079 65.0079 0 145.199 0C225.391 0 290.398 65.0079 290.398 145.199C290.398 225.391 225.391 290.398 145.199 290.398Z" fill="#C8D67A"/>
<path d="M61.1133 108.14V108.54C61.1133 108.54 63.3433 109.21 65.6533 109.99C75.8633 113.45 85.3333 118 93.8133 123.52C108.943 133.36 121.553 145.83 131.303 160.58C138.433 171.37 143.823 183.22 147.323 195.79C150.313 206.54 151.813 216.56 151.923 226.43V226.97C151.933 227.63 151.953 228.34 151.953 229.1H166.903C166.793 199.31 158.003 171.99 140.803 148C121.193 120.65 94.4333 102.11 61.2533 92.8896L61.1133 92.8496V108.13V108.14Z" fill="#053732"/>
<path d="M117.084 162.929C103.024 143.669 84.0638 129.889 61.1238 122.119V138.089C61.2438 138.139 72.4438 143.479 77.0638 146.189C87.9138 152.549 97.3338 161.289 105.864 172.909C110.604 179.369 114.294 186.139 116.834 193.059C118.144 196.319 119.064 199.799 119.944 203.159C120.234 204.239 120.514 205.319 120.814 206.399C122.784 213.489 123.814 220.919 123.974 229.119L125.754 229.089H137.584L138.924 229.109C138.844 204.929 131.494 182.659 117.084 162.919V162.929Z" fill="#053732"/>
<path d="M151.974 123.439V61.4792H167.594L167.614 64.0092C167.634 78.2492 167.654 92.9692 167.584 107.449C167.584 107.849 167.614 108.709 167.614 108.709C162.114 113.259 156.894 118.169 151.974 123.449V123.439Z" fill="#053732"/>
<path d="M165.424 152.469C167.114 150.429 168.734 148.479 170.364 146.539C177.514 138.029 185.994 130.549 196.284 123.659C205.744 117.329 229.034 108.169 229.274 108.079L229.244 106.489V92.4295L228.924 92.5195C198.324 101.379 173.914 117.659 154.304 142.279L154.074 142.569L154.304 142.939C157.264 147.199 160.004 151.539 162.514 155.979L165.424 152.469Z" fill="#053732"/>
<path d="M176.454 187.689C187.954 164.519 205.734 147.699 229.284 137.699L229.244 135.919V121.869L228.894 121.989C228.084 122.279 227.324 122.539 226.604 122.789C225.174 123.279 223.834 123.739 222.554 124.289C200.694 133.619 183.174 148.269 170.474 167.829C170.124 168.369 169.694 169.089 169.404 169.579C172.094 175.579 174.394 181.719 176.324 187.979L176.464 187.699L176.454 187.689Z" fill="#053732"/>
<path d="M138.454 123.239V61.279H122.834L122.814 63.809C122.794 78.049 122.774 92.769 122.844 107.249C122.844 107.649 122.814 108.509 122.814 108.509C128.314 113.059 133.534 117.969 138.454 123.249V123.239Z" fill="#053732"/>
</svg>
