<?xml version="1.0" encoding="UTF-8"?>
<svg id="Layer_1" data-name="Layer 1" xmlns="http://www.w3.org/2000/svg" viewBox="0 0 854.46 172.89">
  <defs>
    <style>
      .cls-1 {
        fill: #e4ecc8;
        stroke-width: 0px;
      }
    </style>
  </defs>
  <path class="cls-1" d="m170.19,78.51c0-3.01,0-5.76,0-8.51,0-18.39,0-53.46,0-64.24,0-1.78-1.44-3.21-3.22-3.21h-45.71c-1.43,28.64,18.17,62.76,48.93,75.96Z"/>
  <path class="cls-1" d="m38.18,44.62c7.55-12.89,11.42-26.78,11.54-42.11H5.32c-1.77,0-3.21,1.43-3.22,3.19-.21,24.06-.11,47.98,0,72.45,15.64-8,27.55-18.96,36.09-33.53Z"/>
  <path class="cls-1" d="m170.19,153.24s-2.13-.41-3.59-.78c-2.93-.74-5.87-1.47-8.72-2.44-7.45-2.51-14.83-5.38-21.8-9.04-2.41-1.27-4.78-2.62-7.1-4.06s-4.37-3.14-6.6-4.65v38.1h44.6c1.78,0,3.22-1.44,3.22-3.22v-13.93Z"/>
  <path class="cls-1" d="m2.02,153.24s2.13-.41,3.59-.78c2.93-.74,5.87-1.47,8.72-2.44,7.45-2.51,14.83-5.38,21.8-9.04,2.41-1.27,4.78-2.62,7.1-4.06,2.28-1.42,4.37-3.14,6.6-4.65v38.1H5.24c-1.78,0-3.22-1.44-3.22-3.22v-13.93Z"/>
  <path class="cls-1" d="m170.19,123.52v-.4s-2.23-.67-4.54-1.45c-10.21-3.46-19.68-8.01-28.16-13.53-15.13-9.84-27.74-22.31-37.49-37.06-7.13-10.79-12.52-22.64-16.02-35.21-2.99-10.75-4.49-20.77-4.6-30.64v-.54c-.01-.66-.03-1.37-.03-2.13h-14.95c.11,29.79,8.9,57.11,26.1,81.1,19.61,27.35,46.37,45.89,79.55,55.11l.14.04v-15.28Z"/>
  <path class="cls-1" d="m114.22,68.73c14.06,19.26,33.02,33.04,55.96,40.81v-15.97c-.12-.05-11.32-5.39-15.94-8.1-10.85-6.36-20.27-15.1-28.8-26.72-4.74-6.46-8.43-13.23-10.97-20.15-1.31-3.26-2.23-6.74-3.11-10.1-.29-1.08-.57-2.16-.87-3.24-1.97-7.09-3-14.52-3.16-22.72l-1.78.03h-11.83l-1.34-.02c.08,24.18,7.43,46.45,21.84,66.19Z"/>
  <path class="cls-1" d="m79.33,108.22v61.96h-15.62s-.02-2.53-.02-2.53c-.02-14.24-.04-28.96.03-43.44,0-.4-.03-1.26-.03-1.26h0c5.5-4.55,10.72-9.46,15.64-14.74Z"/>
  <polygon class="cls-1" points="325.54 130.07 262.81 130.07 262.81 95.61 319.95 95.61 319.95 75.82 262.81 75.82 262.81 45.14 325.54 45.14 325.54 25.17 241.03 25.17 241.03 150.05 325.54 150.05 325.54 130.07"/>
  <polygon class="cls-1" points="368.07 57.61 346.65 57.61 346.65 150.05 368.07 150.05 368.07 95.5 401.42 78.38 401.42 55.89 368.07 74.1 368.07 57.61"/>
  <path class="cls-1" d="m450.37,55.99c-9.91,0-18.21,2.35-24.68,7-6.31,4.54-11.07,10.35-14.14,17.29l16.84,8.59c1.4-3.54,3.73-6.73,6.96-9.5,3.47-2.97,8.34-4.48,14.48-4.48s11.17,1.72,14.94,5.12c3.79,3.42,5.71,7.13,5.71,11.02v1.51l-26.38,1.66c-10.26.59-18.31,3.51-23.94,8.66-5.6,5.14-8.44,12.01-8.44,20.43s3.02,15.35,8.97,20.6c5.98,5.27,13.6,7.95,22.64,7.95,12.33,0,21.06-3.84,25.95-11.42l1.19-1.84v11.46h21.24v-57.03c0-9.51-3.67-18.16-10.9-25.69-7.23-7.52-17.47-11.34-30.45-11.34Zm20.47,57.21c0,5.83-2.48,10.7-7.37,14.48-4.84,3.74-10.52,5.63-16.89,5.63-3.86,0-7.06-.99-9.5-2.93-2.49-1.98-3.76-4.67-3.76-7.99s1.14-5.96,3.38-7.88c2.2-1.88,5.14-2.97,8.76-3.22l25.39-1.67v3.57Z"/>
  <path class="cls-1" d="m642.76,66.03c-6.81-6.46-15.4-9.74-25.51-9.74-12.23,0-21.88,4.46-28.69,13.27l-.54.7-.5-.72c-6.09-8.79-15.25-13.24-27.23-13.24-5.51,0-10.47,1.19-14.74,3.52-4.26,2.33-7.47,5.46-9.57,9.3l-1.21,2.22v-13.42h-21.24v92.44h21.24v-53.97c0-5.79,1.76-10.61,5.22-14.32,3.47-3.72,8.12-5.61,13.81-5.61s10,1.85,13.53,5.51c3.53,3.65,5.32,8.5,5.32,14.42v53.97h21.24v-53.97c0-5.79,1.76-10.61,5.22-14.32,3.47-3.72,8.12-5.61,13.81-5.61s9.99,1.85,13.53,5.51c3.53,3.66,5.32,8.51,5.32,14.42v53.97h21.24v-61c0-9.02-3.45-16.87-10.25-23.32Z"/>
  <path class="cls-1" d="m710.07,55.99c-9.91,0-18.21,2.35-24.68,7-6.31,4.54-11.07,10.35-14.14,17.29l16.84,8.59c1.39-3.54,3.73-6.73,6.96-9.5,3.47-2.97,8.34-4.48,14.48-4.48s11.17,1.72,14.94,5.12c3.79,3.42,5.71,7.13,5.71,11.03v1.51l-26.38,1.66c-10.26.59-18.31,3.51-23.94,8.66-5.6,5.14-8.44,12.01-8.44,20.43s3.02,15.35,8.97,20.6c5.98,5.27,13.6,7.95,22.64,7.95,12.33,0,21.06-3.84,25.95-11.42l1.19-1.84v11.46h21.24v-57.03c0-9.52-3.67-18.16-10.9-25.69-7.23-7.52-17.47-11.34-30.45-11.34Zm20.47,57.21c0,5.83-2.48,10.7-7.37,14.48-4.84,3.74-10.52,5.63-16.89,5.63-3.86,0-7.06-.99-9.51-2.93-2.49-1.98-3.76-4.67-3.76-7.99s1.14-5.96,3.38-7.88c2.2-1.88,5.14-2.97,8.76-3.22l25.39-1.67v3.57Z"/>
  <path class="cls-1" d="m808.31,55.99c-9.91,0-18.21,2.35-24.68,7-6.31,4.54-11.07,10.35-14.14,17.29l16.84,8.59c1.4-3.54,3.73-6.73,6.96-9.5,3.47-2.97,8.34-4.48,14.48-4.48s11.17,1.72,14.94,5.12c3.79,3.42,5.71,7.13,5.71,11.03v1.51l-26.38,1.66c-10.26.59-18.31,3.51-23.94,8.66-5.6,5.14-8.44,12.01-8.44,20.43s3.02,15.35,8.97,20.6c5.98,5.27,13.6,7.95,22.64,7.95,12.33,0,21.06-3.84,25.95-11.42l1.19-1.84v11.46h21.24v-57.03c0-9.52-3.67-18.16-10.9-25.69-7.23-7.52-17.47-11.34-30.45-11.34Zm20.47,57.21c0,5.83-2.48,10.7-7.37,14.48-4.84,3.74-10.52,5.63-16.89,5.63-3.86,0-7.06-.99-9.51-2.93-2.49-1.98-3.76-4.67-3.76-7.99s1.14-5.96,3.38-7.88c2.2-1.88,5.14-2.97,8.76-3.22l25.39-1.67v3.57Z"/>
  <g>
    <path class="cls-1" d="m65.88,79.19c-1.69,2.04-3.31,3.99-4.94,5.93-7.15,8.51-15.63,15.99-25.92,22.88-9.46,6.33-32.75,15.49-32.99,15.58l.03,1.59v14.06l.32-.09c30.6-8.86,55.01-25.14,74.62-49.76l.23-.29-.23-.37c-2.96-4.26-5.7-8.6-8.21-13.04l-2.91,3.51Z"/>
    <path class="cls-1" d="m54.85,43.97c-11.5,23.17-29.28,39.99-52.83,49.99l.04,1.78v14.05l.35-.12c.81-.29,1.57-.55,2.29-.8,1.43-.49,2.77-.95,4.05-1.5,21.86-9.33,39.38-23.98,52.08-43.54.35-.54.78-1.26,1.07-1.75-2.69-6-4.99-12.14-6.92-18.4l-.14.28Z"/>
    <path class="cls-1" d="m92.85,108.42v61.96h15.62l.02-2.53c.02-14.24.04-28.96-.03-43.44,0-.4.03-1.26.03-1.26h0c-5.5-4.55-10.72-9.46-15.64-14.74Z"/>
  </g>
</svg>